<svg id="Layer_1" data-name="Layer 1" xmlns="http://www.w3.org/2000/svg" viewBox="0 0 500 500" width="500" height="500" class="illustration"><title>37. SVG</title><polyline points="108.67 119.74 123.29 310.72 331.64 333.25 108.67 333.25 107.52 128.27" fill="#3fe2fd"></polyline><rect x="159.66" y="134.47" width="41.62" height="33.51" fill="#3fe2fd"></rect><rect x="298.19" y="134.47" width="41.62" height="33.51" fill="#3fe2fd"></rect><rect x="159.66" y="250.09" width="41.62" height="33.51" fill="#3fe2fd"></rect><rect x="298.19" y="250.09" width="41.62" height="33.51" fill="#3fe2fd"></rect><path d="M387.62,50.32H163.73a7,7,0,0,0-4.66,1.78L97,107.52c-.22.2-.43.42-.63.64l-.15.19c-.16.2-.31.41-.45.62s-.08.12-.11.18a6.34,6.34,0,0,0-.42.82c0,.07,0,.14-.08.2a5.88,5.88,0,0,0-.23.71,2.17,2.17,0,0,0-.07.24,6.93,6.93,0,0,0-.16.91v.13a5.46,5.46,0,0,0,0,.58v220a7,7,0,0,0-.29,2V440.8a7,7,0,0,0,7,7H387.62a7,7,0,0,0,7-7V57.32A7,7,0,0,0,387.62,50.32Zm-7,277.42h-272v-208h56.55a7,7,0,0,0,7-7V64.32H380.62Zm-222.41-255v33H120.34ZM108.37,433.8V343.06H380.62V433.8Z" fill="#251ac7"></path><path d="M309,363.34h31.91a7,7,0,0,0,0-14H309A24.67,24.67,0,0,0,284.39,374v23.28A24.67,24.67,0,0,0,309,421.9h31.91a7,7,0,0,0,7-7v-27a7,7,0,0,0-7-7H316.17a7,7,0,1,0,0,14h17.77v13H309a10.65,10.65,0,0,1-10.64-10.64V374A10.65,10.65,0,0,1,309,363.34Z" fill="#251ac7"></path><path d="M162.72,127.47a7,7,0,0,0-7,7v36a7,7,0,0,0,7,7h7.64v64.27h-7.64a7,7,0,0,0-7,7v36a7,7,0,0,0,7,7h36a7,7,0,0,0,7-7v-11h88.48v11a7,7,0,0,0,7,7h36a7,7,0,0,0,7-7v-36a7,7,0,0,0-7-7h-7.64V177.51h7.64a7,7,0,0,0,7-7v-36a7,7,0,0,0-7-7h-36a7,7,0,0,0-7,7v16.09H205.76V134.47a7,7,0,0,0-7-7Zm29,36h-22v-22h22Zm138.52-22v22h-22v-22Zm-29,36h14.4v64.27h-14.4a7,7,0,0,0-7,7v11H205.76v-11a7,7,0,0,0-7-7h-14.4V177.51h14.4a7,7,0,0,0,7-7v-5.95h88.48v5.95A7,7,0,0,0,301.24,177.51Zm29,100.31h-22v-22h22Zm-160.56,0v-22h22v22Z" fill="#251ac7"></path><path d="M193.13,381h0l-18.58,0h0a6.87,6.87,0,0,1-5-2.28,9.11,9.11,0,0,1,0-12.16,6.87,6.87,0,0,1,5-2.28l29.66,0a7,7,0,0,0,0-14h0l-29.66,0A20.72,20.72,0,0,0,159.24,357a23.11,23.11,0,0,0,0,31.28A20.71,20.71,0,0,0,174.52,395h0l18.58,0h0a5.26,5.26,0,0,1,3.85,1.75,7,7,0,0,1,1.83,4.8c0,3.61-2.54,6.55-5.67,6.56l-30.13,0a7,7,0,0,0,0,14h0l30.12,0c10.85,0,19.67-9.24,19.66-20.57a21,21,0,0,0-5.61-14.36A19.14,19.14,0,0,0,193.13,381Z" fill="#251ac7"></path><path d="M275.41,350a7,7,0,0,0-9.27,3.48l-18.7,41.14L230,352.79a7,7,0,0,0-12.92,5.4l23.66,56.6a7,7,0,0,0,6.35,4.29h.11a7,7,0,0,0,6.37-4.11l25.34-55.75A7,7,0,0,0,275.41,350Z" fill="#251ac7"></path></svg>